<svg width="433" height="433" viewBox="0 0 433 433" fill="none" xmlns="http://www.w3.org/2000/svg">
<g id="cookies-svgrepo-com 1" clip-path="url(#clip0_3_2)">
<g id="cookie">
<path id="Vector" d="M405.626 210.039L385.041 214.156C378.191 215.526 371.306 211.963 368.469 205.579L346.419 155.965C344.552 151.764 340.855 148.659 336.396 147.543L324.909 144.672C318.262 143.01 313.599 137.039 313.599 130.187V50.5756C313.599 46.8553 312.21 43.2687 309.704 40.5185L281.97 10.085C256.965 2.16669 230.011 -1.36581 201.988 0.479513C94.2832 7.57496 7.03288 95.1898 0.460918 202.926C-7.20707 328.647 92.4827 433 216.547 433C334.88 433 430.978 338.049 432.953 220.186L415.233 211.326C412.263 209.84 408.882 209.388 405.626 210.039Z" fill="#FFE6A1"/>
<g id="Group">
<path id="Vector_2" d="M283.736 365.81C282.422 365.81 281.127 365.734 279.819 365.711C271.615 374.913 259.706 380.741 246.408 380.741C226.822 380.741 210.216 368.148 204.129 350.635C177.338 340.033 153.173 324.259 132.864 304.513C129.792 305.439 126.601 306.085 123.227 306.085C104.673 306.085 89.6318 291.045 89.6318 272.491C89.6318 266.011 91.5533 260.014 94.7314 254.882C94.5039 254.475 94.2612 254.081 94.0354 253.672C70.7321 252.092 52.305 232.738 52.305 209.034C52.305 195.064 58.7036 182.594 68.7261 174.379C67.7763 166.149 67.2359 157.796 67.2359 149.31C67.2359 106.729 79.5781 67.055 100.808 33.5719C40.2673 71.9567 0.0465088 139.511 0.0465088 216.5C0.0465088 336.07 96.9768 433 216.547 433C293.536 433 361.089 392.779 399.475 332.239C365.992 353.468 326.317 365.81 283.736 365.81Z" fill="#FFD796"/>
<path id="Vector_3" d="M168.021 179.172C178.329 179.172 186.685 170.816 186.685 160.509C186.685 150.201 178.329 141.845 168.021 141.845C157.713 141.845 149.357 150.201 149.357 160.509C149.357 170.816 157.713 179.172 168.021 179.172Z" fill="#FFD796"/>
<path id="Vector_4" d="M365.857 302.353C376.165 302.353 384.521 293.997 384.521 283.689C384.521 273.382 376.165 265.026 365.857 265.026C355.549 265.026 347.193 273.382 347.193 283.689C347.193 293.997 355.549 302.353 365.857 302.353Z" fill="#FFD796"/>
<path id="Vector_5" d="M196.016 302.353C203.232 302.353 209.081 296.504 209.081 289.289C209.081 282.074 203.232 276.224 196.016 276.224C188.801 276.224 182.952 282.074 182.952 289.289C182.952 296.504 188.801 302.353 196.016 302.353Z" fill="#FFD796"/>
<path id="Vector_6" d="M296.801 182.904C304.017 182.904 309.866 177.055 309.866 169.84C309.866 162.625 304.017 156.776 296.801 156.776C289.586 156.776 283.737 162.625 283.737 169.84C283.737 177.055 289.586 182.904 296.801 182.904Z" fill="#FFD796"/>
<path id="Vector_7" d="M244.543 67.1894C251.758 67.1894 257.607 61.3403 257.607 54.125C257.607 46.9097 251.758 41.0606 244.543 41.0606C237.327 41.0606 231.478 46.9097 231.478 54.125C231.478 61.3403 237.327 67.1894 244.543 67.1894Z" fill="#FFD796"/>
</g>
<g id="Group_2">
<path id="Vector_8" d="M205.683 192.301L197.052 206.686C191.893 215.283 196.508 226.421 206.234 228.852L231.923 235.275C239.923 237.275 248.03 232.411 250.03 224.411L252.968 212.655C253.563 210.277 253.563 207.791 252.968 205.413L249.861 192.984C247.929 185.251 240.263 180.4 232.448 181.963L215.558 185.341C211.433 186.167 207.848 188.694 205.683 192.301Z" fill="#B97850"/>
<path id="Vector_9" d="M248.774 284.725L239.773 299.727C235.298 307.185 238.12 316.874 245.898 320.763L274.552 335.09C283.096 339.363 293.398 334.624 295.715 325.357L298.667 313.551L302.116 299.75C304.264 291.161 298.508 282.6 289.742 281.348L263.687 277.625C257.742 276.776 251.864 279.574 248.774 284.725Z" fill="#B97850"/>
<path id="Vector_10" d="M91.6852 195.66L80.7004 213.969C77.1755 219.844 78.1015 227.364 82.9457 232.209L100.234 249.498C106.526 255.791 116.891 255.216 122.451 248.267L137.272 229.74C140.183 226.102 141.228 221.313 140.097 216.792L136.717 203.271C135.318 197.672 130.818 193.383 125.161 192.25L107.416 188.702C101.229 187.464 94.9319 190.249 91.6852 195.66Z" fill="#B97850"/>
<path id="Vector_11" d="M152.473 74.4379L144.002 88.5561C139.088 96.7467 143.022 107.382 152.084 110.403L170.465 116.53C175.83 118.318 181.745 116.922 185.744 112.923L195.638 103.029C199.347 99.3211 200.838 93.9382 199.566 88.8504L196.978 78.4999C195.316 71.8518 189.344 67.1886 182.492 67.1886H165.275C160.032 67.1894 155.171 69.9413 152.473 74.4379Z" fill="#B97850"/>
<path id="Vector_12" d="M332.798 189.835L324.155 198.477C318.325 204.307 318.325 213.762 324.155 219.593L328.385 223.822C332.93 228.367 339.871 229.493 345.62 226.619L370.075 214.392C376.334 211.262 379.581 204.205 377.884 197.416L376.776 192.985C374.844 185.253 367.178 180.402 359.363 181.965L340.428 185.752C337.537 186.329 334.882 187.75 332.798 189.835Z" fill="#B97850"/>
<path id="Vector_13" d="M277.28 83.2645L267.364 96.4863C263.722 101.342 263.382 107.922 266.506 113.127L275.681 128.418C280.066 135.729 289.673 137.889 296.766 133.16L315.397 120.739C322.529 115.985 324.202 106.214 319.059 99.3574L308.931 85.8532C307.109 83.4235 304.589 81.607 301.708 80.6471L293.946 78.0592C287.849 76.0253 281.135 78.1227 277.28 83.2645Z" fill="#B97850"/>
<path id="Vector_14" d="M149.511 319.156L139.762 331.342C133.503 339.166 136.573 350.811 145.876 354.533L158.972 359.771C162.532 361.196 166.503 361.196 170.062 359.771L184.759 353.892C193.565 350.371 196.898 339.638 191.638 331.747L189.114 327.96C187.672 325.798 185.692 324.051 183.368 322.888L167.849 315.128C161.55 311.98 153.909 313.659 149.511 319.156Z" fill="#B97850"/>
</g>
<g id="Group_3">
<path id="Vector_15" d="M118.76 247.724L101.473 230.436C96.6283 225.592 95.7015 218.071 99.2272 212.197L110.212 193.888C111.149 192.327 112.387 191.06 113.756 189.97L107.417 188.703C101.23 187.466 94.9319 190.252 91.6852 195.662L80.7004 213.971C77.1755 219.846 78.1015 227.366 82.9457 232.211L100.234 249.499C106.066 255.331 115.351 255.191 121.11 249.616C120.284 249.069 119.489 248.454 118.76 247.724Z" fill="#A5694B"/>
<path id="Vector_16" d="M185.419 111.215L167.037 105.089C157.977 102.068 154.041 91.4324 158.956 83.2417L167.426 69.1235C167.857 68.4047 168.426 67.8136 168.96 67.1894H165.274C160.03 67.1894 155.17 69.9413 152.471 74.4388L144 88.5561C139.085 96.7467 143.019 107.382 152.082 110.403L170.463 116.53C175.828 118.318 181.743 116.922 185.743 112.923L187.134 111.532C186.562 111.414 185.982 111.403 185.419 111.215Z" fill="#A5694B"/>
<path id="Vector_17" d="M246.089 230.982L220.4 224.56C210.673 222.127 206.059 210.99 211.219 202.393L219.849 188.008C220.876 186.296 222.241 184.85 223.815 183.691L215.558 185.343C211.433 186.167 207.847 188.695 205.683 192.303L197.052 206.687C191.893 215.285 196.508 226.423 206.234 228.854L231.923 235.276C237.335 236.629 242.747 234.793 246.332 231.018C246.251 230.998 246.171 231.002 246.089 230.982Z" fill="#A5694B"/>
<path id="Vector_18" d="M289.627 127.127L280.452 111.836C277.329 106.63 277.668 100.053 281.31 95.1949L291.226 81.974C292.312 80.5253 293.66 79.3904 295.122 78.4491L293.945 78.0576C287.848 76.0253 281.135 78.1227 277.278 83.2637L267.363 96.4846C263.721 101.341 263.382 107.92 266.505 113.125L275.68 128.417C280.051 135.702 289.605 137.863 296.69 133.197C293.851 132.016 291.338 129.978 289.627 127.127Z" fill="#A5694B"/>
<path id="Vector_19" d="M340.368 222.828C334.536 216.996 334.536 207.543 340.368 201.712L349.01 193.07C351.094 190.986 353.748 189.564 356.64 188.987L372.577 185.799C369.167 182.559 364.298 180.976 359.362 181.964L340.428 185.751C337.537 186.33 334.882 187.75 332.798 189.834L324.155 198.476C318.325 204.308 318.325 213.761 324.155 219.592L328.385 223.821C332.648 228.084 338.991 229.202 344.508 226.97L340.368 222.828Z" fill="#A5694B"/>
<path id="Vector_20" d="M264.395 319.511C256.616 315.621 253.794 305.932 258.269 298.474L267.27 283.474C268.451 281.508 270.119 280.017 271.96 278.808L263.689 277.627C257.742 276.777 251.865 279.574 248.775 284.725L239.774 299.727C235.299 307.185 238.12 316.874 245.899 320.763L274.553 335.09C280.264 337.946 286.709 336.713 291.081 332.855L264.395 319.511Z" fill="#A5694B"/>
<path id="Vector_21" d="M173.903 357.276L160.807 352.037C151.505 348.317 148.434 336.67 154.693 328.847L164.442 316.66C165.061 315.886 165.756 315.21 166.49 314.591C160.481 312.289 153.6 314.043 149.511 319.156L139.762 331.342C133.503 339.166 136.573 350.811 145.876 354.533L158.972 359.771C162.532 361.196 166.503 361.196 170.062 359.771L175.286 357.682C174.824 357.547 174.353 357.456 173.903 357.276Z" fill="#A5694B"/>
</g>
<path id="Vector_22" d="M59.7616 306.079C58.6428 306.079 57.501 305.824 56.4304 305.291C52.7414 303.447 51.2462 298.964 53.0916 295.275L60.5574 280.344C62.4027 276.655 66.8748 275.175 70.5739 277.005C74.2629 278.85 75.7581 283.333 73.9128 287.021L66.4469 301.952C65.1386 304.569 62.5034 306.079 59.7616 306.079Z" fill="#C98850"/>
<path id="Vector_23" d="M194.15 403.137H186.684C182.561 403.137 179.218 399.799 179.218 395.671C179.218 391.545 182.561 388.206 186.684 388.206H194.15C198.273 388.206 201.616 391.544 201.616 395.671C201.616 399.799 198.273 403.137 194.15 403.137Z" fill="#925F4A"/>
<path id="Vector_24" d="M164.28 261.293C163.161 261.293 162.02 261.038 160.949 260.505C157.26 258.66 155.765 254.177 157.61 250.489L165.076 235.558C166.917 231.877 171.39 230.389 175.093 232.219C178.782 234.064 180.277 238.547 178.432 242.236L170.966 257.166C169.657 259.784 167.021 261.293 164.28 261.293Z" fill="#C98850"/>
<g id="Group_4">
<path id="Vector_25" d="M119.488 141.845C118.369 141.845 117.227 141.59 116.156 141.057L101.226 133.591C97.5366 131.746 96.0414 127.264 97.8868 123.575C99.7278 119.894 104.204 118.398 107.903 120.236L122.834 127.701C126.523 129.546 128.018 134.029 126.173 137.718C124.865 140.335 122.229 141.845 119.488 141.845Z" fill="#925F4A"/>
<path id="Vector_26" d="M209.082 37.3268H194.151C190.028 37.3268 186.685 33.988 186.685 29.8609C186.685 25.7339 190.028 22.3951 194.151 22.3951H209.082C213.204 22.3951 216.547 25.7339 216.547 29.8609C216.547 33.988 213.204 37.3268 209.082 37.3268Z" fill="#925F4A"/>
</g>
<path id="Vector_27" d="M238.951 149.31C236.209 149.31 233.574 147.801 232.266 145.184L224.8 130.253C222.954 126.564 224.45 122.08 228.139 120.236C231.835 118.398 236.315 119.894 238.155 123.575L245.621 138.506C247.466 142.195 245.971 146.679 242.282 148.522C241.21 149.055 240.07 149.31 238.951 149.31Z" fill="#C98850"/>
<g id="Group_5">
<path id="Vector_28" d="M34.07 185.866C33.0661 185.371 32.1553 184.638 31.4289 183.687C28.934 180.402 29.5759 175.719 32.8615 173.225L46.1576 163.131C49.4398 160.635 54.1191 161.283 56.619 164.564C59.1138 167.848 58.4719 172.531 55.1864 175.025L41.8911 185.119C39.5595 186.888 36.5285 187.077 34.07 185.866Z" fill="#925F4A"/>
<path id="Vector_29" d="M313.599 268.759C311.688 268.759 309.778 268.03 308.321 266.572L293.39 251.641C290.474 248.725 290.474 244 293.39 241.084C296.306 238.168 301.031 238.168 303.947 241.084L318.877 256.015C321.793 258.931 321.793 263.656 318.877 266.572C317.419 268.03 315.508 268.759 313.599 268.759Z" fill="#925F4A"/>
</g>
<path id="Vector_30" d="M328.529 343.414C326.619 343.414 324.709 342.685 323.251 341.227C320.335 338.311 320.335 333.586 323.251 330.67L330.717 323.204C333.633 320.288 338.358 320.288 341.274 323.204C344.19 326.12 344.19 330.845 341.274 333.761L333.808 341.227C332.35 342.685 330.44 343.414 328.529 343.414Z" fill="#C98850"/>
</g>
<g id="crumbs">
<g id="Group_6">
<path id="Vector_31" d="M343.46 29.8618V48.6973C343.46 53.9795 348.794 57.5907 353.698 55.6287L376.095 46.6701C378.929 45.536 380.788 42.7909 380.788 39.7387V29.8618C380.788 25.739 377.445 22.3959 373.322 22.3959H350.925C346.803 22.3959 343.46 25.739 343.46 29.8618Z" fill="#FFE6A1"/>
<path id="Vector_32" d="M359.421 88.7176L354.657 122.067C353.537 129.912 358.741 137.266 366.51 138.82L380.182 141.554C386.116 142.741 392.178 140.229 395.535 135.195L400.676 127.482C403.34 123.486 403.92 118.453 402.233 113.958L386.658 72.4243C384.721 67.2588 378.094 65.8236 374.193 69.7248L363.646 80.2716C361.361 82.5558 359.879 85.52 359.421 88.7176Z" fill="#FFE6A1"/>
</g>
<g id="Group_7">
<path id="Vector_33" d="M396.849 128.292L383.176 125.558C375.406 124.004 370.203 116.65 371.324 108.806L376.088 75.457C376.513 72.4827 377.9 69.7663 379.918 67.5556C377.891 67.4533 375.811 68.1053 374.193 69.7223L363.645 80.2699C361.36 82.5542 359.878 85.5183 359.422 88.7159L354.658 122.065C353.538 129.91 358.741 137.264 366.511 138.817L380.183 141.551C386.116 142.737 392.179 140.227 395.535 135.192L400.034 128.445C398.975 128.467 397.915 128.506 396.849 128.292Z" fill="#FFD796"/>
<path id="Vector_34" d="M368.629 40.6969C363.725 42.6581 358.391 39.047 358.391 33.7655V22.3959H350.925C346.803 22.3959 343.459 25.739 343.459 29.8618V48.6973C343.459 53.9795 348.793 57.5907 353.698 55.6287L376.094 46.6701C378.928 45.536 380.787 42.7917 380.787 39.7387V35.8341L368.629 40.6969Z" fill="#FFD796"/>
<path id="Vector_35" d="M399.441 162.817L395.028 171.643C393.978 173.745 393.978 176.218 395.028 178.32L397.042 182.349C399.05 186.365 404.123 187.713 407.86 185.223L419.895 177.199C421.972 175.814 423.219 173.483 423.219 170.988V162.944C423.219 157.849 418.227 154.25 413.393 155.862L403.756 159.074C401.879 159.699 400.326 161.046 399.441 162.817Z" fill="#FFD796"/>
</g>
</g>
</g>
<defs>
<clipPath id="clip0_3_2">
<rect width="433" height="433" fill="white"/>
</clipPath>
</defs>
</svg>
